<svg id="English" xmlns="http://www.w3.org/2000/svg" width="29" height="133" viewBox="0 0 29 133">
  <defs>
    <style>
      .cls-1 {
        fill: #b52600;
      }

      .cls-2 {
        fill: #fff;
        fill-rule: evenodd;
      }
    </style>
  </defs>
  <rect class="cls-1" x="-5" width="34" height="133" rx="5" ry="5"/>
  <path id="Heart_05_-_www.Shapes4FREE.com1" data-name="Heart 05 - www.Shapes4FREE.com1" class="cls-2" d="M13.136,108.3c1.836,0.794,5.8,6.448,5.863,6.543h0c-0.066.1-4.026,5.749-5.863,6.543a3.631,3.631,0,0,1-4.786-1.943,3.71,3.71,0,0,1,1.461-4.6,3.712,3.712,0,0,1-1.461-4.6A3.632,3.632,0,0,1,13.136,108.3Z"/>
  <path id="Membership_copy" data-name="Membership copy" class="cls-2" d="M7.761,99.9H18.123V98.6H9.49l7.331-3.608V94.117L9.606,90.559h8.517v-1.3H7.761v1.829l7.018,3.459L7.761,98.038V99.9Zm8.707-14.52a3.221,3.221,0,0,1-2,.593V80.586a4.547,4.547,0,0,0-3.13.568,2.728,2.728,0,0,0-1.285,2.471,3.376,3.376,0,0,0,1.12,2.652,4.344,4.344,0,0,0,3,1,4.4,4.4,0,0,0,3.006-.988,3.255,3.255,0,0,0,1.128-2.57,3.473,3.473,0,0,0-.651-2.15,2.706,2.706,0,0,0-1.837-1.046v1.334a1.633,1.633,0,0,1,1.433,1.862A1.967,1.967,0,0,1,16.467,85.38Zm-2.99-3.624v4.2a2.994,2.994,0,0,1-1.7-.684,2.21,2.21,0,0,1-.486-2.512,2.261,2.261,0,0,1,2.191-1h0Zm-3.229-4.323v1.12h7.875v-1.3H14.251a3.8,3.8,0,0,1-2.24-.642,1.909,1.909,0,0,1-.807-1.6,1.977,1.977,0,0,1,.577-1.524,2.437,2.437,0,0,1,1.713-.535h4.629V71.667H14.3a4.046,4.046,0,0,1-2.273-.552,1.768,1.768,0,0,1-.824-1.557,2,2,0,0,1,.577-1.54,2.437,2.437,0,0,1,1.713-.535h4.629V66.2H13.494a3.8,3.8,0,0,0-2.52.774,2.7,2.7,0,0,0-.923,2.191,2.732,2.732,0,0,0,1.895,2.751,2.7,2.7,0,0,0-1.895,2.718,2.7,2.7,0,0,0,1.713,2.652ZM6.9,62.553v1.3H18.123V62.949l-1.384-.3A2.574,2.574,0,0,0,18.3,60.231a3.211,3.211,0,0,0-1.145-2.488,4.335,4.335,0,0,0-3-1.021,4.318,4.318,0,0,0-2.982,1.005,3.234,3.234,0,0,0-1.128,2.52,2.518,2.518,0,0,0,1.367,2.306H6.9Zm5.107-3.83a3.282,3.282,0,0,1,2.158-.667,3.288,3.288,0,0,1,2.166.675,2.021,2.021,0,0,1,.815,1.6A2.142,2.142,0,0,1,16.5,61.9a2.348,2.348,0,0,1-1.738.651H13.477a2.313,2.313,0,0,1-1.672-.659,2.17,2.17,0,0,1-.6-1.565A2.02,2.02,0,0,1,12.011,58.723Zm4.456-5.234a3.222,3.222,0,0,1-2,.593V48.7a4.547,4.547,0,0,0-3.13.568,2.728,2.728,0,0,0-1.285,2.471,3.376,3.376,0,0,0,1.12,2.652,4.344,4.344,0,0,0,3,1,4.4,4.4,0,0,0,3.006-.988,3.255,3.255,0,0,0,1.128-2.57,3.473,3.473,0,0,0-.651-2.15,2.706,2.706,0,0,0-1.837-1.046v1.334a1.633,1.633,0,0,1,1.433,1.862A1.967,1.967,0,0,1,16.467,53.489Zm-2.99-3.624v4.2a2.994,2.994,0,0,1-1.7-.684,2.21,2.21,0,0,1-.486-2.512,2.261,2.261,0,0,1,2.191-1h0Zm-1.96-7.436-1.268-.066a2.753,2.753,0,0,0-.148.906,2.139,2.139,0,0,0,1.647,2.092H10.232v1.3h7.891v-1.3H14.284q-2.932-.066-2.932-1.928a3.166,3.166,0,0,1,.165-1h0Zm0.659-1.311q1.532,0,2.142-2.059l0.511-1.532a3.006,3.006,0,0,1,.461-1.071,0.924,0.924,0,0,1,.766-0.33,1.033,1.033,0,0,1,.865.56,2.938,2.938,0,0,1-.008,2.842,1.314,1.314,0,0,1-1.112.6v1.252a2.352,2.352,0,0,0,1.8-.922,3.8,3.8,0,0,0,.7-2.438,3.867,3.867,0,0,0-.684-2.438,1.944,1.944,0,0,0-1.532-.873,1.712,1.712,0,0,0-1.334.535,4.085,4.085,0,0,0-.8,1.54l-0.527,1.582a2.846,2.846,0,0,1-.5,1.054,0.9,0.9,0,0,1-.708.33,1.024,1.024,0,0,1-.782-0.437,1.9,1.9,0,0,1-.363-1.244q0-1.664,1.071-1.812V34.989a1.891,1.891,0,0,0-1.5.832,3.651,3.651,0,0,0-.593,2.216,3.886,3.886,0,0,0,.577,2.249,1.8,1.8,0,0,0,1.549.832h0ZM6.9,31.472v1.3H18.123v-1.3H14.4a3.962,3.962,0,0,1-2.348-.61,1.9,1.9,0,0,1-.848-1.614,2,2,0,0,1,.577-1.54,2.437,2.437,0,0,1,1.713-.535h4.629V25.888H13.494a3.774,3.774,0,0,0-2.52.783,2.962,2.962,0,0,0,.725,4.8H6.9ZM18.123,23.52v-1.3H10.232v1.3h7.891ZM8.164,22.244a0.856,0.856,0,0,0-1.186,0,0.894,0.894,0,0,0-.222.634,0.835,0.835,0,0,0,.222.618,0.8,0.8,0,0,0,.593.222A0.8,0.8,0,0,0,8.164,23.5a0.835,0.835,0,0,0,.222-0.618A0.894,0.894,0,0,0,8.164,22.244Zm2.084-3.693v1.071H21.994v-1.3H17.167A2.469,2.469,0,0,0,18.3,16.079a3.333,3.333,0,0,0-1.128-2.553,4.243,4.243,0,0,0-2.99-1.038,4.3,4.3,0,0,0-3,1.03,3.325,3.325,0,0,0-1.137,2.57,2.494,2.494,0,0,0,1.4,2.315Zm6.31-.857a2.138,2.138,0,0,1-1.631.626h-1.5a2.286,2.286,0,0,1-1.623-.643,2.135,2.135,0,0,1-.6-1.565,2.035,2.035,0,0,1,.807-1.623,3.322,3.322,0,0,1,2.183-.667,3.153,3.153,0,0,1,2.166.7,2.114,2.114,0,0,1,.791,1.623A2.165,2.165,0,0,1,16.558,17.694Z"/>
</svg>
